inDegrees=no
num_controls=7
num_derivatives=13
num_iterations=173
num_multipliers=7
num_parameters=0
num_slacks=7
num_states=26
objective=5.617473
objective_accelerations=0.778325
objective_balance=0.061907
objective_effort=0.466573
objective_height=4.272413
objective_ligament=0.038255
solver_duration=2592.476393
status=Solve_Succeeded
success=true
DataType=double
version=3
OpenSimVersion=4.4-2022-07-23-0e9fedc
endheader
time	/jointset/ground_pelvis/pelvis_tilt/value	/jointset/ground_pelvis/pelvis_tx/value	/jointset/ground_pelvis/pelvis_ty/value	/jointset/hip_l/hip_flexion_l/value	/jointset/hip_l/hip_adduction_l/value	/jointset/hip_l/hip_rotation_l/value	/jointset/back/lumbar_extension/value	/jointset/patellofemoral_l/patellar_flexion_l/value	/jointset/knee_l/knee_flexion_l/value	/jointset/knee_l/knee_adduction_l/value	/jointset/knee_l/knee_rotation_l/value	/jointset/ankle_l/ankle_angle_l/value	/jointset/subtalar_l/subtalar_angle_l/value	/jointset/ground_pelvis/pelvis_tilt/speed	/jointset/ground_pelvis/pelvis_tx/speed	/jointset/ground_pelvis/pelvis_ty/speed	/jointset/hip_l/hip_flexion_l/speed	/jointset/hip_l/hip_adduction_l/speed	/jointset/hip_l/hip_rotation_l/speed	/jointset/back/lumbar_extension/speed	/jointset/patellofemoral_l/patellar_flexion_l/speed	/jointset/knee_l/knee_flexion_l/speed	/jointset/knee_l/knee_adduction_l/speed	/jointset/knee_l/knee_rotation_l/speed	/jointset/ankle_l/ankle_angle_l/speed	/jointset/subtalar_l/subtalar_angle_l/speed	/forceset/tau_hip_flexion_l	/forceset/tau_hip_adduction_l	/forceset/tau_hip_rotation_l	/forceset/tau_knee_flexion_l	/forceset/tau_ankle_angle_l	/forceset/tau_subtalar_angle_l	/forceset/tau_lumbar_extension	lambda_cid13_p0	lambda_cid13_p1	lambda_cid13_p2	lambda_cid13_p3	lambda_cid13_p4	lambda_cid13_p5	lambda_cid14_p0	/jointset/ground_pelvis/pelvis_tilt/accel	/jointset/ground_pelvis/pelvis_tx/accel	/jointset/ground_pelvis/pelvis_ty/accel	/jointset/hip_l/hip_flexion_l/accel	/jointset/hip_l/hip_adduction_l/accel	/jointset/hip_l/hip_rotation_l/accel	/jointset/back/lumbar_extension/accel	/jointset/patellofemoral_l/patellar_flexion_l/accel	/jointset/knee_l/knee_flexion_l/accel	/jointset/knee_l/knee_adduction_l/accel	/jointset/knee_l/knee_rotation_l/accel	/jointset/ankle_l/ankle_angle_l/accel	/jointset/subtalar_l/subtalar_angle_l/accel	gamma_cid13_p0	gamma_cid13_p1	gamma_cid13_p2	gamma_cid13_p3	gamma_cid13_p4	gamma_cid13_p5	gamma_cid14_p0
1.5	-0.3755617703051892	-0.05761282901113107	0.7138116694617619	1.382240969024041	-0.2865243624619753	0.0420356187671552	-0.3706233489783861	1.003196945717047	1.003196945717452	-0.1247913691698768	0.1695583135317902	0.1903646799833565	0.005828372898258037	0.4658900333406296	0.1502057592720267	0.6995185258755378	-2.555052450448237	-0.0863661746545709	-0.7120146202759775	0.5286617920610415	-2.546765928676579	-2.546765928676408	-0.134790598886519	-0.04366163327551946	-0.5996038679084141	-0.2123318088319212	-0.2293417717879589	0.001631647200269692	-0.01816289093268549	-0.2850259279670136	0.1280785136973779	0.03003220428545956	0.2217811217250192	2.87163282792337	-14.70259047671936	3.262922244445752	-10.79696120677045	-611.8577441645151	-60.07747358084764	-8.793967888143847	1.086969150620524	0.9617283892095155	-0.4425212364211659	-2.216275225512811	0.6798819165718202	-0.5234230161006214	2.303506061487066	-1.889079522676466	-1.889079522676391	0.0398401442058814	-0.2398158911707066	-0.8596972607547918	0.8012788529224993	1.398302269583863e-07	1.211800097624115e-06	-3.681810678252206e-07	5.541539102314496e-08	3.016219903509301e-07	3.352354434791001e-07	1.671152951513789e-07
1.51	-0.3708491285287794	-0.05606272390559451	0.7207831574704704	1.356582769241997	-0.2873540423874976	0.03488995720093226	-0.3652223715860765	0.9776381619178546	0.9776381619180557	-0.1261379035796378	0.1691103173116513	0.184326595897871	0.003745006297592469	0.4765555477426449	0.1598086570349679	0.694622395845048	-2.576243026673147	-0.07953866041694992	-0.7170303069731635	0.5514759594083704	-2.564640638140986	-2.564640638141098	-0.1345325452681215	-0.0459337233789879	-0.6078970068928319	-0.2043107560477298	-0.2219584506004512	0.002034950096587544	-0.0189976931537397	-0.2810802794149126	0.129574067531828	0.03063391513571763	0.2156480406969521	3.730532101246268	-15.25995997340979	3.518160296577091	-11.24397626209701	-605.5353024969659	-60.0704415035981	-10.4112590414747	1.043936573842257	0.9585887732665638	-0.5366226573089466	-2.018763405915628	0.6888451610519817	-0.4774197908744504	2.261713022632634	-1.684156015153284	-1.684156015195727	0.01644773439233166	-0.2202601517921277	-0.7967166980977485	0.8070660950182564	8.748675245771941e-08	8.128683621948255e-07	-2.965246564305551e-07	4.861853873579943e-08	2.287176622260782e-07	1.920795408171396e-07	1.172421569078931e-07
1.52	-0.3660323128105784	-0.05441678616174252	0.7277009914246847	1.330723000780713	-0.2881145153739054	0.02769678310887492	-0.3595949843300388	0.9519111331526445	0.9519111331526542	-0.127482325500473	0.1686397292741145	0.1782090615263798	0.001742759745538964	0.4867248216986615	0.1693722869351122	0.6887877149767276	-2.595366186295483	-0.0725247868315443	-0.7215171254442224	0.5739437648067736	-2.580414921878614	-2.580414921879009	-0.1343681011002965	-0.04817999675675155	-0.6154939251097471	-0.1961077991095047	-0.2145751294129682	0.002438252992925897	-0.01983249537470827	-0.2771346308628087	0.1310696213662908	0.03123562598600227	0.2095149596688549	4.583997978202806	-15.81227105236747	3.767900636067584	-11.70637968839981	-599.3046139751016	-60.09935173486789	-12.04265862471868	0.9877210614208234	0.9538748166501669	-0.6302314039872703	-1.802791904998104	0.7171537861287608	-0.4176493708751892	2.234233671702002	-1.468994377320893	-1.468994377320883	0.02111825409137923	-0.2346525460297954	-0.720453107254283	0.8376596837292669	7.379417029712043e-08	5.788358260299511e-07	-3.684816836653215e-07	2.569760762820036e-08	2.114316897874041e-07	1.049682256814239e-07	1.015472219814886e-07
1.53	-0.3611162517286063	-0.05267554520972251	0.7345558144115544	1.304682516520356	-0.2888038676621415	0.02046125012624952	-0.3537448359764073	0.9260371658572638	0.9260371658572381	-0.1288252395244036	0.1681468050866939	0.1720191716402521	-0.0001764906096932688	0.4964032997223436	0.1788547746850724	0.6820226078168865	-2.612356066821051	-0.06530106441073345	-0.7255566590479752	0.5960123710834614	-2.593986940058906	-2.593986940059217	-0.1341506270346289	-0.05037517162927423	-0.6223505578964461	-0.1876956003988087	-0.2073283060044699	0.00309055718678139	-0.02064522538153686	-0.2726734693267633	0.1316801613843354	0.03176736054745476	0.2033839544887986	5.14978648000361	-16.27472430221951	3.992924165548376	-11.84696304152584	-593.0003626204776	-59.96409272889241	-13.68467898294629	0.9453091325810535	0.9422592770766162	-0.7227364344977533	-1.590878274398066	0.7317325730959403	-0.3920332343032177	2.182143880420433	-1.242592608437975	-1.242592608425445	0.03173937580083258	-0.2073478217735668	-0.6482396683023626	0.8500072498746707	1.011681612478431e-07	5.200086890835162e-07	-5.930279894438574e-07	-1.435515722591791e-08	2.532402202652935e-07	7.740428479234271e-08	1.221666280794824e-07
1.54	-0.35610592627445	-0.0508401146756212	0.7413383691143223	1.278483375025126	-0.2894196325055602	0.01318633623173534	-0.3476762076050572	0.9000392209660524	0.9000392209660032	-0.1301640433292387	0.1676328495777473	0.165764721165471	-0.002010217520791636	0.505577696135601	0.1882102033513735	0.6743340581564126	-2.627097633269091	-0.05780729786836133	-0.7293933078188561	0.61763976835088	-2.605210441041389	-2.605210441041617	-0.133546057249116	-0.05238626105821176	-0.6284060428401331	-0.1790031102827178	-0.2000814825960278	0.003742861380582721	-0.02145795538764631	-0.2682123077907814	0.1322907014023636	0.03229909510884073	0.1972529493086966	5.71006654216119	-16.73292093141228	4.213508993370885	-12.00460582643657	-586.7961204359189	-59.8701954608167	-15.33295392238265	0.8869047393358601	0.9284629999183582	-0.8149199041138231	-1.353129089492845	0.7711626104409626	-0.3770724043007858	2.145991869848204	-0.9992909377592684	-0.9992909377592262	0.09853739806045361	-0.1978354573128293	-0.5602235386518966	0.893717964808283	2.814806897851681e-07	1.313559003480961e-07	-2.050210747553219e-06	-2.516729736341896e-07	4.521270008975771e-07	-8.575073900716177e-08	2.628203673113124e-07
